<?xml version="1.0" ?><svg xmlns="http://www.w3.org/2000/svg" id="Garden" viewBox="0 0 64 64"><defs><style>
      .cls-1 {
        stroke-width: 0px;
      }
    </style></defs><path class="cls-1" d="M56,53c-.36,0-.71.03-1.06.09-.36-2.8-2.4-5.09-5.07-5.83.03-.06.07-.11.1-.18l3.51-6.87c.25-.49.06-1.09-.44-1.34l-6.23-3.19,1.82-3.56h.01c.29.15.6.22.9.22.73,0,1.43-.4,1.79-1.09l3.64-7.12c.24-.48.28-1.02.12-1.53-.16-.5-.52-.92-.99-1.16l-1.78-.91c-.99-.5-2.19-.11-2.69.87l-3.65,7.12c-.24.48-.28,1.02-.12,1.53.17.5.52.92.99,1.16l-1.82,3.56-6.22-3.18c-.5-.25-1.1-.06-1.35.43l-3.52,6.87c-.83,1.63-1.13,3.46-.91,5.47-.64-.23-1.33-.36-2.03-.36-2.41,0-4.54,1.43-5.48,3.55-2.03-.94-4.61-.61-6.35.83-1.2-.89-2.65-1.38-4.17-1.38-.44,0-.86.04-1.28.12-.89-2.08-1.49-4.09-1.84-6.02.31.02.61.03.9.03,6.17,0,8.13-4.71,8.15-4.76.2-.5-.04-1.08-.54-1.29-2.39-1.03-4.54-1.1-6.38-.22-1.09.51-1.91,1.29-2.51,2.08-.04-6.36,2.44-11.67,5.15-15.56.33.07.67.11,1.02.11.89,1.55,2.51,2.51,4.33,2.51s3.44-.96,4.33-2.51h.02c1.77,0,3.41-.92,4.31-2.49.91-1.57.89-3.46,0-5,.9-1.54.92-3.43,0-5-.91-1.57-2.56-2.5-4.33-2.49-.89-1.55-2.51-2.51-4.33-2.51s-3.44.96-4.33,2.51h-.02c-1.77,0-3.41.92-4.31,2.49-.91,1.57-.89,3.46,0,5-.9,1.54-.92,3.43,0,5,.37.64.86,1.17,1.43,1.57-1.37,2.02-2.68,4.38-3.65,7.04-1.01-1.51-3.16-3.41-7.84-4.58-.28-.07-.57-.02-.8.14-.24.16-.4.41-.44.69-.02.13-.41,3.12,1.66,5.25,1.28,1.32,3.17,1.99,5.63,1.99.25,0,.52-.03.78-.05-1.09,4.86-.94,10.5,1.71,16.72-1.96,1.02-3.39,2.93-3.74,5.23h-.08c-3.31,0-6,2.69-6,6,0,.55.45,1,1,1h58c.55,0,1-.45,1-1,0-3.31-2.69-6-6-6ZM22,10c2.21,0,4,1.79,4,4s-1.79,4-4,4-4-1.79-4-4,1.79-4,4-4ZM4.13,58c.44-1.72,2.01-3,3.87-3,.29,0,.55.03.79.08.29.06.6-.06.84-.25.23-.19.37-.53.37-.83,0-2.76,2.24-5,5-5,1.33,0,2.57.51,3.5,1.45.2.19.47.31.75.29.28-.01.54-.14.72-.35.76-.88,1.86-1.39,3.03-1.39.91,0,1.76.3,2.47.86.28.21.64.27.97.15.33-.13.57-.41.63-.76.35-1.88,2-3.25,3.93-3.25,1.45,0,2.79.79,3.5,2.05.15.28.43.46.75.5.31.04.63-.07.85-.3.76-.81,1.79-1.25,2.9-1.25,1.81,0,3.4,1.22,3.86,2.96.1.34.37.61.71.71.34.08.71-.01.96-.26.92-.91,2.15-1.41,3.47-1.41,2.76,0,5,2.24,5,5,0,.09,0,.19-.01.28-.05.36.1.72.38.93.29.23.68.27,1.01.13.51-.23,1.06-.34,1.62-.34,1.86,0,3.43,1.28,3.87,3H4.13Z"/></svg>